# xmcd
#
# Track frame offsets:
#	150
#	17090
#	33420
#	50402
#	69750
#	85015
#	102695
#	117129
#	136240
#	152650
#
# Disc length: 2277 seconds
#
# Revision: 0
# Processed by: cddbd v1.5.2PL0 Copyright (c) Steve Scherf et al.
# Submitted via: FairStars CD Ripper 1.90
#
DISCID=7708e30a
DTITLE=Curtis Alan - Home Town Ptoud
DYEAR=2003
DGENRE=Country
TTITLE0=Just Another Day
TTITLE1=First Day Of The Rest Of My Life
TTITLE2=Home Town Proud
TTITLE3=Dance
TTITLE4=Thanks Dad
TTITLE5=Whatever's Meant To Be Will Find a Way
TTITLE6=The Legend
TTITLE7=A Better Place
TTITLE8=Lady I Love You
TTITLE9=Running Away With My Heart
EXTD=
EXTT0=
EXTT1=
EXTT2=
EXTT3=
EXTT4=
EXTT5=
EXTT6=
EXTT7=
EXTT8=
EXTT9=
PLAYORDER=
